<svg width="78" height="78" viewBox="0 0 78 78" fill="none" xmlns="http://www.w3.org/2000/svg">
<path d="M37 46.5H35.5V42H41V46.5H39.5M37 46.5L34.5 59H42.5L39.5 46.5M37 46.5H39.5" stroke="black"/>
<path d="M56 59H21C21.3333 53.3333 25.3 42 38.5 42C51.7 42 55.6667 53.3333 56 59Z" stroke="black"/>
<circle cx="39" cy="39" r="38.5" stroke="#EA5901"/>
<circle cx="38.5" cy="28.5" r="10" stroke="black"/>
<path d="M36.5 27.5H40M36.5 27.5C36.3333 26.8333 35.7 25.5 34.5 25.5C33 25.5 31.5 26 31.5 27.5C31.5 29 32.5 29.5 34.5 29.5C36.1 29.5 36.5 28.1667 36.5 27.5ZM40 27.5C40 26.8333 40.5 25.5 42.5 25.5C45 25.5 45 27 45 27.5C45 28 45 29.5 42.5 29.5C40 29.5 40 28.5 40 27.5Z" stroke="black"/>
</svg>
