<svg width="78" height="78" viewBox="0 0 78 78" fill="none" xmlns="http://www.w3.org/2000/svg">
<circle cx="39" cy="39" r="38.5" stroke="#EA5901"/>
<path d="M48 50.5C49.5 51 52.5 52.7 52.5 55.5C52.5 58.3 49.5 60 48 60.5H19.5C18.5 60.1667 16.5 58.7 16.5 55.5C16.5 52.3 18.5 50.8333 19.5 50.5H20.5M48 50.5H20.5M48 50.5L45.5 35M20.5 50.5V42.5H29.5V35H40M45.5 35L52.5 26.5L59 40.5M45.5 35H40M59 40.5L51 45.5L56.5 49.5L63.5 45.5L59 40.5ZM59 40.5L56 22M56 22C56.1667 20.5 56.3 18 53.5 18C50.7 18 50.3333 20.3333 50.5 21.5M56 22C55.8333 22.3333 55.5 23.5 53.5 23.5C51.5 23.5 50.6667 22.1667 50.5 21.5M50.5 21.5L40 35M46 54.5L45 56H47L46 54.5ZM41 54.5L40 56H42L41 54.5ZM36 54.5L35 56H37L36 54.5ZM31.5 54.5L30.5 56H32.5L31.5 54.5ZM26.5 54.5L25.5 56H27.5L26.5 54.5ZM21.5 54.5L20.5 56H22.5L21.5 54.5Z" stroke="black"/>
</svg>
