<svg width="78" height="78" viewBox="0 0 78 78" fill="none" xmlns="http://www.w3.org/2000/svg">
<circle cx="39" cy="39" r="38.5" stroke="#EA5901"/>
<path fill-rule="evenodd" clip-rule="evenodd" d="M59.4029 26.4229C59.891 26.3283 60.4541 26.2526 60.9003 26.2932C61.4699 26.345 61.8328 26.6778 62.0347 27.036C62.2259 27.3754 62.2851 27.7508 62.2851 28.003V31.2997L71.1766 30.9136L71.6766 30.8919L71.6978 31.3919L72.036 39.3396L72.0417 39.4737L71.9795 39.5926L68.1466 46.9202L68.0463 47.112L67.8379 47.1701L60.7639 49.1429L60.4953 48.1797L67.3608 46.265L71.0312 39.248L70.72 31.9344L51.1802 32.7828L45.7352 34.9123L43.2508 39.5071L43.2064 40.0272C44.003 39.798 44.926 39.547 45.9106 39.2881C48.9112 38.499 52.5094 37.6298 54.9075 37.0702L55.1025 37.0247L55.2751 37.1264L59.0516 39.3529L59.2977 39.498V39.7836V44.4338V44.9338H58.7977L44.9315 44.9338H44.8039L44.6919 44.8727C44.0626 44.529 43.1569 44.0118 42.3338 43.4965H39.464H38.964V42.9965V40.7909H23.9633H23.4633V40.2909V39.0249L22.9132 39.1711V41.5591V42.2726L22.2425 42.0291L17.9815 40.4821L16.2771 40.9352L36.4765 48.1907L36.1385 49.1319L14.5771 41.3871L8.08365 43.1133L8.08244 43.1136C7.85418 43.1737 7.49704 43.2205 7.14233 43.1577C6.78162 43.0938 6.33905 42.8953 6.13816 42.393C6.0378 42.1421 6.03463 41.8879 6.12066 41.6552C6.20197 41.4353 6.34926 41.2706 6.49128 41.153C6.76563 40.9257 7.11504 40.7953 7.34986 40.7371L10.4151 39.8921L6.71522 38.5632L6.70689 38.5602L6.70692 38.5601C6.5145 38.4871 6.23987 38.3339 6.03698 38.0856C5.81537 37.8144 5.67452 37.4133 5.85496 36.9522C6.01637 36.5397 6.32478 36.3041 6.62116 36.1841C6.90508 36.0691 7.193 36.0518 7.3904 36.0738L7.43696 36.0789L7.48175 36.0927L13.0737 37.8072L15.2993 33.8995L15.4431 33.6469H15.7338H23.8086L25.2874 32.6351L25.415 32.5478H25.5697H37.0587L58.1499 26.7339C58.4387 26.6447 58.9076 26.5188 59.4029 26.4229ZM20.0394 38.9003L17.8621 39.4689L16.3083 39.8747L16.3362 39.8848L14.6216 40.3406L13.7228 40.0177L17.6169 38.9443L22.5432 37.6172L22.9132 37.5175V37.4843L23.4633 37.3327V37.9901L20.0394 38.9003ZM22.9132 36.447L23.4633 36.2954V34.6469H22.3467C22.3731 34.6639 22.3993 34.6818 22.4254 34.7008C22.8543 35.0127 22.9236 35.5062 22.9132 35.7389V36.447ZM12.8559 38.7864L7.24342 37.0655C7.18095 37.0646 7.08585 37.0748 6.99656 37.1109C6.89978 37.1501 6.82771 37.2105 6.78621 37.3166C6.76908 37.3603 6.77292 37.3801 6.77428 37.3866C6.77656 37.3976 6.78438 37.4198 6.81134 37.4528C6.87203 37.5271 6.97851 37.5929 7.05818 37.6238L12.0888 39.4308L13.5647 39.024L13.4706 39.0004L12.8252 38.8391L12.8559 38.7864ZM21.9132 36.7227L17.3539 37.9794L15.5036 38.4779L14.3584 38.1916L15.9932 35.3797H21.5113C21.5104 35.3797 21.5108 35.3798 21.5124 35.3799C21.5206 35.3807 21.561 35.3847 21.6214 35.4031C21.6893 35.4238 21.766 35.4577 21.8373 35.5096C21.8598 35.5259 21.881 35.5534 21.8969 35.5988C21.9047 35.6211 21.9097 35.6437 21.9122 35.6634C21.9142 35.6786 21.9143 35.688 21.9143 35.6902C21.9143 35.6906 21.9143 35.6907 21.9144 35.6907L21.9132 35.7074V35.7252V36.7227ZM19.6731 40.0324L21.9132 40.8457V39.4445L20.2939 39.8674L19.6731 40.0324ZM59.5095 29.4424V31.4202L51.0538 31.7873L50.9708 31.7909L50.8934 31.8212L45.2004 34.0477L45.0298 34.1144L44.9427 34.2755L42.3216 39.123L42.2721 39.2146L42.2633 39.3184L42.1767 40.3335L42.0704 40.3666C41.5801 40.5201 41.1703 40.6605 40.8782 40.7809C40.735 40.8399 40.6011 40.9018 40.4961 40.9659C40.4453 40.9969 40.3797 41.0412 40.3208 41.1004C40.277 41.1445 40.1477 41.2838 40.1477 41.5028C40.1477 41.6514 40.2011 41.772 40.2425 41.847C40.2868 41.9273 40.3425 41.9995 40.3964 42.0614C40.5044 42.1851 40.6464 42.3131 40.8006 42.4386C40.8241 42.4577 40.8481 42.477 40.8727 42.4965H39.964V40.2909V34.6384L59.5095 29.4424ZM41.4106 41.6456C41.5913 41.5767 41.8175 41.4983 42.0848 41.4115L42.0259 42.1013C41.7949 41.9423 41.5928 41.794 41.4319 41.663L41.4106 41.6456ZM45.0596 43.9338C44.479 43.6144 43.6998 43.1676 42.9769 42.719L43.1154 41.095C43.9758 40.8421 45.0247 40.555 46.1649 40.2552C49.0731 39.4904 52.5498 38.6488 54.9398 38.0896L58.2977 40.0692V43.9338L45.0596 43.9338ZM59.8811 28.3089L39.964 33.6036V33.0478V32.7842L58.4232 27.6959L58.4309 27.6938L58.4386 27.6914C58.6954 27.6117 59.1328 27.4938 59.5931 27.4046C60.0651 27.3132 60.5119 27.262 60.8098 27.2891C60.9842 27.3049 61.0864 27.3902 61.1635 27.527C61.2513 27.6828 61.2851 27.8794 61.2851 28.003V31.2796H60.5095V28.7922V28.1419L59.8811 28.3089ZM38.964 33.5478H37.194L24.4633 37.057V37.7243L38.964 33.8695V33.5478ZM25.7244 33.5478H33.4309L24.4633 36.0197V34.4107L25.7244 33.5478ZM7.60895 41.703L12.049 40.479L12.9216 40.7925L7.82795 42.1466L7.82748 42.1467C7.69872 42.1805 7.49248 42.2041 7.31662 42.173C7.14654 42.1429 7.09122 42.0831 7.06664 42.0217C7.06219 42.0106 7.06042 42.0033 7.05972 41.9995C7.06387 41.991 7.08008 41.9638 7.12922 41.923C7.24875 41.824 7.44422 41.7434 7.59455 41.7067L7.60178 41.7049L7.60895 41.703ZM38.964 34.9042L24.4633 38.759L24.4633 39.7909H38.964V34.9042ZM58.6004 48.3649L38.2521 48.3649C37.6526 48.3649 37.1666 48.8509 37.1666 49.4504C37.1666 50.05 37.6526 50.536 38.2521 50.536L58.6004 50.536C59.1999 50.536 59.6859 50.05 59.6859 49.4504C59.6859 48.8509 59.1999 48.3649 58.6004 48.3649ZM38.2521 47.3649C37.1003 47.3649 36.1666 48.2986 36.1666 49.4504C36.1666 50.6022 37.1003 51.536 38.2521 51.536L58.6004 51.536C59.7522 51.536 60.6859 50.6022 60.6859 49.4504C60.6859 48.2986 59.7522 47.3649 58.6004 47.3649L38.2521 47.3649ZM26.4434 41.0591H25.9434V41.5591V43.1938V43.5109L26.2302 43.6461L28.6821 44.8016L28.8356 44.8739L29.0013 44.8379C29.4553 44.7394 30.0026 44.617 30.5861 44.4818C30.5579 44.547 30.5372 44.6254 30.5372 44.7157C30.5372 44.8698 30.6013 44.9835 30.6411 45.0418C30.684 45.1046 30.7332 45.1531 30.7718 45.1872C30.8493 45.2557 30.9433 45.3174 31.034 45.371C31.2197 45.4808 31.47 45.6019 31.7518 45.726C32.3199 45.976 33.0717 46.2618 33.8256 46.5232C34.5799 46.7847 35.3483 47.0259 35.9511 47.1847C36.2504 47.2636 36.5212 47.3255 36.7336 47.358C36.8376 47.374 36.9458 47.3858 37.044 47.3846C37.0927 47.384 37.1562 47.3801 37.2233 47.3646C37.2814 47.3511 37.4017 47.316 37.5065 47.2111C37.7154 47.0022 37.8877 46.7117 37.9158 46.3346C37.9433 45.9655 37.8283 45.5739 37.5817 45.163C37.4452 44.9355 37.2135 44.731 36.9893 44.5621C36.7529 44.3839 36.4721 44.2069 36.187 44.0428C35.7307 43.7801 35.2407 43.5375 34.8567 43.3615C34.8903 43.3504 34.9232 43.3393 34.9552 43.3284C35.1854 43.25 35.3911 43.1713 35.5459 43.0948C35.6207 43.0578 35.7065 43.0103 35.7808 42.9508C35.818 42.921 35.8689 42.8752 35.9138 42.8117C35.9581 42.749 36.0183 42.6379 36.0183 42.4892C36.0183 42.2268 35.8793 42.0227 35.7761 41.9012C35.6631 41.7682 35.5216 41.6514 35.3877 41.555C35.118 41.3608 34.8048 41.197 34.5962 41.1032L34.4983 41.0591H34.391H26.4434ZM26.9434 42.8767V42.0591H34.2796C34.4251 42.1301 34.605 42.2292 34.7614 42.3369C34.7212 42.3513 34.6783 42.3663 34.6327 42.3818C34.2015 42.5288 33.5944 42.7022 32.9075 42.8828C31.6044 43.2255 30.05 43.5849 28.9548 43.8246L26.9434 42.8767ZM35.0372 42.5801C35.037 42.5801 35.0361 42.5786 35.0347 42.5758C35.0366 42.5787 35.0373 42.5801 35.0372 42.5801ZM32.424 44.6386C32.2804 44.6769 32.1464 44.7152 32.0248 44.7527L32.0962 44.7848L32.1546 44.8107C32.6891 45.0459 33.4135 45.322 34.1532 45.5784C34.8926 45.8348 35.6355 46.0675 36.2059 46.2178C36.4931 46.2934 36.7243 46.345 36.885 46.3696L36.8927 46.3707C36.907 46.3365 36.9156 46.3 36.9186 46.2602C36.9263 46.1573 36.9004 45.9711 36.7242 45.6775C36.6916 45.6231 36.591 45.514 36.3875 45.3607C36.1961 45.2165 35.9538 45.0624 35.6881 44.9094C35.218 44.6388 34.7026 44.3877 34.329 44.2202C33.7856 44.3196 33.045 44.4726 32.424 44.6386Z" fill="black"/>
</svg>
