<?xml version="1.0" encoding="utf-8"?>
<!-- Generator: Adobe Illustrator 26.4.1, SVG Export Plug-In . SVG Version: 6.00 Build 0)  -->
<svg version="1.1" id="Слой_1" xmlns="http://www.w3.org/2000/svg" xmlns:xlink="http://www.w3.org/1999/xlink" x="0px" y="0px"
	 viewBox="0 0 909 681" style="enable-background:new 0 0 909 681;" xml:space="preserve">
<style type="text/css">
	.st0{display:none;fill:#FFFFFF;}
	.st1{display:none;fill:none;stroke:#D9D9D9;stroke-miterlimit:10;}
</style>
<image style="overflow:visible;" width="858" height="526" xlink:href="5F2CD2C5.png"  transform="matrix(1 0 0 1 51.4134 -0.6735)">
</image>
<path class="st0" d="M242.8,183.8L345.8-0.1h-294v524.5h0L76.1,481l7.1,43.4h174.6C232.5,310.8,242.8,183.8,242.8,183.8z"/>
<path class="st0" d="M345.8-0.1l287.9,524.5H659L462.2,179.1h64.3l186.1,345.3H909V169.9l-28.1,54.2l-51.1-90.2h59.6l19.6,36v-170
	H345.8z M730.2,515.2L521.9,133.9h58.5l174.1,334.3L730.2,515.2z M770.9,436.5L599.5,133.9h54.8l137,263.1L770.9,436.5z
	 M807.4,366.1L675.9,133.9h56.6l97.8,187.9L807.4,366.1z M867.1,250.9l-22,42.6l-90.3-159.5h51.5L867.1,250.9z"/>
<polygon class="st1" points="257.8,524.4 633.7,524.4 633.7,524.4 257.8,524.4 "/>
<rect x="51.8" y="524.4" class="st1" width="31.4" height="0"/>
</svg>
