<?xml version="1.0" encoding="utf-8"?>
<!-- Generator: Adobe Illustrator 26.4.1, SVG Export Plug-In . SVG Version: 6.00 Build 0)  -->
<svg version="1.1" id="Слой_1" xmlns="http://www.w3.org/2000/svg" xmlns:xlink="http://www.w3.org/1999/xlink" x="0px" y="0px"
	 viewBox="0 0 856 523.7" style="enable-background:new 0 0 856 523.7;" xml:space="preserve">
<style type="text/css">
	.st0{fill:#FFFFFF;}
	.st1{fill:none;stroke:#D9D9D9;stroke-miterlimit:10;}
</style>
<image style="overflow:visible;" width="858" height="526" xlink:href="7D696A03.png"  transform="matrix(1 0 0 1 -1.6063 -0.6735)">
</image>
<path class="st0" d="M189.7,183.8L292.8-0.1h-294v524.5h0L23.1,481l7.1,43.4h174.6C179.5,310.8,189.7,183.8,189.7,183.8z"/>
<path class="st0" d="M292.8-0.1l287.9,524.5H606L409.2,179.1h64.3l186.1,345.3H856V169.9l-28.1,54.2l-51.1-90.2h59.6l19.6,36v-170
	H292.8z M677.2,515.2L468.9,133.9h58.5l174.1,334.3L677.2,515.2z M717.9,436.5L546.5,133.9h54.8l137,263.1L717.9,436.5z
	 M754.4,366.1L622.9,133.9h56.6l97.8,187.9L754.4,366.1z M814.1,250.9l-22,42.6l-90.3-159.5h51.5L814.1,250.9z"/>
<polygon class="st1" points="204.7,524.4 580.7,524.4 580.7,524.4 204.7,524.4 "/>
<rect x="-1.2" y="524.4" class="st1" width="31.4" height="0"/>
</svg>
