<svg width="155" height="130" viewBox="0 0 155 130" fill="none" xmlns="http://www.w3.org/2000/svg">
<path fill-rule="evenodd" clip-rule="evenodd" d="M101.5 97.0083H80C79.5 102.008 75.5 121.508 70 121.508C67.2481 121.508 65.7579 118.984 64.3725 116.637C64.2476 116.425 64.1236 116.215 63.9996 116.008C63.037 114.404 60.2209 105.18 58.459 91.5083H105L69 26.5083L57.9746 46.6957C59.8406 25.6763 64.1631 7.50826 69.9996 7.50826C74.9996 7.50826 78.9996 27.5083 79.9996 38.0083H103.5C92.4996 1.00827 73.9996 0.00825767 69.9996 0.00825767C69.78 0.00825881 69.5527 0.00633083 69.3177 0.00433776C64.2025 -0.0390471 55.4511 -0.113272 43.5 19.0083C32.1259 37.2065 32.8259 70.9995 34.9905 88.7792L33.5 91.5083H35.3514C35.4005 91.8498 35.4499 92.1832 35.4997 92.5082C39 106.008 53.1997 129.508 69.9997 129.508C86.7997 129.508 98 107.675 101.5 97.0083ZM35.3514 91.5083H58.459C57.4755 83.8769 56.8205 74.8596 56.9996 65.0082C57.1105 58.9088 57.4428 52.6864 57.9746 46.6957L34.9905 88.7792C35.1071 89.737 35.228 90.6484 35.3514 91.5083Z" fill="#EA5901"/>
<path d="M107.5 91.5083L84.5 48.5083H91.5L114.5 91.5083H107.5Z" fill="#EA5901"/>
<path d="M136 42.5083H129.5L135.5 53.0083L138.5 47.0083L136 42.5083Z" fill="#EA5901"/>
<path fill-rule="evenodd" clip-rule="evenodd" d="M91.5 42.5083L116.5 90.0083L116.633 89.7805L119.801 83.6336L98 42.5083H91.5ZM101 42.5083L121.196 80.929L124.745 74.0425L107.5 42.5083H101ZM129.317 65.1724L125.896 71.8102L110.5 42.5083H117L129.317 65.1724ZM130.5 62.5083L132.139 59.6982L133.89 56.3023L126.5 42.5083H120L130.5 62.5083Z" fill="#EA5901"/>
<path d="M31.5 91.0083L34.5 84.5083V75.0083L25 91.0083H31.5Z" stroke="#EA5901"/>
<path d="M35.5 66.0083L22 89.5083L19.5 84.5083L35.5 55.5083V66.0083Z" stroke="#EA5901"/>
<path d="M37.5 44.0083L17.5 80.0083L15 75.0083L31.5 44.0083H37.5Z" stroke="#EA5901"/>
<path d="M22 44.0083H28.5L13 71.0083L10.5 66.0083L22 44.0083Z" stroke="#EA5901"/>
<path d="M12.5 44.0083H18.5L8 61.5083L5.5 57.0083L12.5 44.0083Z" stroke="#EA5901"/>
<path d="M3 44.0083H9L3.5 52.5083L1 48.0083L3 44.0083Z" stroke="#EA5901"/>
</svg>
